<svg width="22" height="23" viewBox="0 0 22 23" fill="none" xmlns="http://www.w3.org/2000/svg">
<path d="M15.359 21.5403V18.5967C15.3975 18.1077 15.3314 17.616 15.1651 17.1545C14.9989 16.6929 14.7363 16.272 14.3949 15.9198C17.6154 15.5608 21 14.3403 21 8.7403C20.9997 7.30833 20.4489 5.93128 19.4616 4.89415C19.929 3.64134 19.896 2.25656 19.3692 1.02748C19.3692 1.02748 18.159 0.668506 15.359 2.54543C13.0082 1.90832 10.5303 1.90832 8.1795 2.54543C5.3795 0.668506 4.16924 1.02748 4.16924 1.02748C3.64244 2.25656 3.60938 3.64134 4.07693 4.89415C3.08218 5.93897 2.5308 7.32848 2.53847 8.77107C2.53847 14.3301 5.92307 15.5506 9.14359 15.9506C8.80615 16.2993 8.54592 16.7151 8.3798 17.171C8.2137 17.6269 8.14544 18.1127 8.1795 18.5967V21.5403" stroke="#868686" stroke-width="2" stroke-linecap="round" stroke-linejoin="round"/>
<path d="M8.17949 19.4888C5.10256 20.4869 2.53846 19.4888 1 16.4119" stroke="#868686" stroke-width="2" stroke-linecap="round" stroke-linejoin="round"/>
</svg>
