<svg width="25" height="25" viewBox="0 0 25 25" fill="none" xmlns="http://www.w3.org/2000/svg">
<path fill-rule="evenodd" clip-rule="evenodd" d="M3.57143 0C2.62423 0 1.71582 0.376274 1.04605 1.04605C0.376274 1.71582 0 2.62423 0 3.57143V21.4286C0 22.3758 0.376274 23.2842 1.04605 23.954C1.71582 24.6237 2.62423 25 3.57143 25H21.4286C22.3758 25 23.2842 24.6237 23.954 23.954C24.6237 23.2842 25 22.3758 25 21.4286V3.57143C25 2.62423 24.6237 1.71582 23.954 1.04605C23.2842 0.376274 22.3758 0 21.4286 0H3.57143ZM5.53929 7.67321C6.10524 7.67321 6.64801 7.44839 7.0482 7.0482C7.44839 6.64801 7.67321 6.10524 7.67321 5.53929C7.67321 4.97333 7.44839 4.43056 7.0482 4.03037C6.64801 3.63018 6.10524 3.40536 5.53929 3.40536C4.97333 3.40536 4.43056 3.63018 4.03037 4.03037C3.63018 4.43056 3.40536 4.97333 3.40536 5.53929C3.40536 6.10524 3.63018 6.64801 4.03037 7.0482C4.43056 7.44839 4.97333 7.67321 5.53929 7.67321ZM7.325 21.0946V9.34643H3.75357V21.0946H7.325ZM9.69643 9.34643H13.2679V10.9196C13.7946 10.0946 14.9518 8.98393 17.1036 8.98393C19.6714 8.98393 21.0661 10.6857 21.0661 13.9232C21.0661 14.0786 21.0804 14.7875 21.0804 14.7875V21.0929H17.5089V14.7893C17.5089 13.9232 17.3268 12.2214 15.4018 12.2214C13.475 12.2214 13.3125 14.3607 13.2679 15.7607V21.0929H9.69643V9.34643Z" fill="#868686"/>
</svg>
