<svg width="127" height="132" viewBox="0 0 127 132" fill="none" xmlns="http://www.w3.org/2000/svg">
<g clip-path="url(#clip0_50_165)">
<rect width="126.261" height="132" fill="white"/>
<path d="M-0.25 66.4469C-0.25 66.4469 21.0625 84.5339 31.375 66.4469C41.6875 48.36 53.375 56.0121 63 66.4469C72.625 76.8818 82.9375 42.0992 94.625 66.4469C106.313 90.7947 126.25 66.4469 126.25 66.4469" stroke="#EFA412" stroke-width="8"/>
<path d="M4.23525 68.2984H8.54725V70.8696H0.943497V57.1958H4.23525V68.2984ZM9.46283 65.4157C9.46283 64.2989 9.66816 63.3185 10.0788 62.4744C10.5023 61.6304 11.0734 60.9811 11.7921 60.5266C12.5107 60.0721 13.3129 59.8449 14.1984 59.8449C14.9554 59.8449 15.6164 60.0007 16.1811 60.3124C16.7586 60.624 17.2014 61.0331 17.5094 61.5395V60.0007H20.8011V70.8696H17.5094V69.3308C17.1884 69.8372 16.7394 70.2463 16.1619 70.5579C15.5971 70.8696 14.9362 71.0254 14.1791 71.0254C13.3064 71.0254 12.5107 70.7982 11.7921 70.3437C11.0734 69.8762 10.5023 69.2205 10.0788 68.3764C9.66816 67.5193 9.46283 66.5325 9.46283 65.4157ZM17.5094 65.4351C17.5094 64.6041 17.2784 63.9483 16.8164 63.4678C16.3671 62.9874 15.8154 62.7471 15.1609 62.7471C14.5064 62.7471 13.9481 62.9874 13.4861 63.4678C13.0369 63.9353 12.8124 64.5846 12.8124 65.4157C12.8124 66.2467 13.0369 66.9089 13.4861 67.4024C13.9481 67.8829 14.5064 68.1231 15.1609 68.1231C15.8154 68.1231 16.3671 67.8829 16.8164 67.4024C17.2784 66.922 17.5094 66.2662 17.5094 65.4351ZM33.7892 60.0007V70.8696H30.4975V69.3892C30.1639 69.8696 29.7082 70.2592 29.1307 70.5579C28.5661 70.8436 27.9372 70.9864 27.2442 70.9864C26.4229 70.9864 25.6979 70.8046 25.069 70.4411C24.4402 70.0644 23.9525 69.5256 23.606 68.8244C23.2595 68.1231 23.0862 67.2985 23.0862 66.3506V60.0007H26.3587V65.9026C26.3587 66.6299 26.5449 67.1947 26.917 67.5972C27.2892 67.9997 27.7897 68.2011 28.4185 68.2011C29.0602 68.2011 29.5671 67.9997 29.9392 67.5972C30.3114 67.1947 30.4975 66.6299 30.4975 65.9026V60.0007H33.7892ZM39.4454 61.8122C39.8304 61.2149 40.3117 60.7474 40.8892 60.4097C41.4667 60.0591 42.1084 59.8838 42.8142 59.8838V63.4094H41.9094C41.0881 63.4094 40.4721 63.5912 40.0614 63.9548C39.6508 64.3054 39.4454 64.9287 39.4454 65.8247V70.8696H36.1537V60.0007H39.4454V61.8122ZM43.7331 65.4157C43.7331 64.2989 43.9384 63.3185 44.3491 62.4744C44.7726 61.6304 45.3436 60.9811 46.0623 60.5266C46.7811 60.0721 47.5831 59.8449 48.4686 59.8449C49.2258 59.8449 49.8866 60.0007 50.4513 60.3124C51.0288 60.624 51.4716 61.0331 51.7796 61.5395V60.0007H55.0713V70.8696H51.7796V69.3308C51.4588 69.8372 51.0096 70.2463 50.4321 70.5579C49.8674 70.8696 49.2066 71.0254 48.4493 71.0254C47.5766 71.0254 46.7811 70.7982 46.0623 70.3437C45.3436 69.8762 44.7726 69.2205 44.3491 68.3764C43.9384 67.5193 43.7331 66.5325 43.7331 65.4157ZM51.7796 65.4351C51.7796 64.6041 51.5486 63.9483 51.0866 63.4678C50.6374 62.9874 50.0856 62.7471 49.4311 62.7471C48.7766 62.7471 48.2183 62.9874 47.7563 63.4678C47.3071 63.9353 47.0826 64.5846 47.0826 65.4157C47.0826 66.2467 47.3071 66.9089 47.7563 67.4024C48.2183 67.8829 48.7766 68.1231 49.4311 68.1231C50.0856 68.1231 50.6374 67.8829 51.0866 67.4024C51.5486 66.922 51.7796 66.2662 51.7796 65.4351ZM73.6212 70.8696H70.3294L64.8239 62.4355V70.8696H61.5322V57.1958H64.8239L70.3294 65.6689V57.1958H73.6212V70.8696ZM75.3527 65.4157C75.3527 64.2989 75.558 63.3185 75.9687 62.4744C76.3922 61.6304 76.9633 60.9811 77.682 60.5266C78.4007 60.0721 79.2027 59.8449 80.0882 59.8449C80.8454 59.8449 81.5063 60.0007 82.071 60.3124C82.6485 60.624 83.0912 61.0331 83.3992 61.5395V60.0007H86.691V70.8696H83.3992V69.3308C83.0784 69.8372 82.6292 70.2463 82.0517 70.5579C81.487 70.8696 80.8262 71.0254 80.069 71.0254C79.1963 71.0254 78.4007 70.7982 77.682 70.3437C76.9633 69.8762 76.3922 69.2205 75.9687 68.3764C75.558 67.5193 75.3527 66.5325 75.3527 65.4157ZM83.3992 65.4351C83.3992 64.6041 83.1682 63.9483 82.7062 63.4678C82.257 62.9874 81.7052 62.7471 81.0507 62.7471C80.3962 62.7471 79.838 62.9874 79.376 63.4678C78.9268 63.9353 78.7022 64.5846 78.7022 65.4157C78.7022 66.2467 78.9268 66.9089 79.376 67.4024C79.838 67.8829 80.3962 68.1231 81.0507 68.1231C81.7052 68.1231 82.257 67.8829 82.7062 67.4024C83.1682 66.922 83.3992 66.2662 83.3992 65.4351ZM93.962 71.0254C92.9096 71.0254 91.96 70.7982 91.113 70.3437C90.2788 69.8891 89.6178 69.2399 89.1302 68.3958C88.6553 67.5517 88.418 66.5649 88.418 65.4351C88.418 64.3183 88.6618 63.338 89.1493 62.4939C89.6371 61.6369 90.3045 60.9811 91.1515 60.5266C91.9985 60.0721 92.948 59.8449 94.0005 59.8449C95.0528 59.8449 96.0025 60.0721 96.8495 60.5266C97.6965 60.9811 98.3638 61.6369 98.8515 62.4939C99.339 63.338 99.583 64.3183 99.583 65.4351C99.583 66.5519 99.3327 67.5388 98.8322 68.3958C98.3445 69.2399 97.6708 69.8891 96.811 70.3437C95.964 70.7982 95.0143 71.0254 93.962 71.0254ZM93.962 68.1426C94.5908 68.1426 95.1233 67.9089 95.5597 67.4414C96.0088 66.9739 96.2335 66.3051 96.2335 65.4351C96.2335 64.5652 96.0153 63.8964 95.579 63.4289C95.1555 62.9614 94.6293 62.7277 94.0005 62.7277C93.3588 62.7277 92.8262 62.9614 92.4027 63.4289C91.9792 63.8834 91.7675 64.5521 91.7675 65.4351C91.7675 66.3051 91.9728 66.9739 92.3835 67.4414C92.807 67.9089 93.3331 68.1426 93.962 68.1426ZM115.035 59.8838C116.37 59.8838 117.429 60.2929 118.211 61.111C119.007 61.9291 119.405 63.0653 119.405 64.5197V70.8696H116.132V64.9677C116.132 64.2664 115.946 63.7275 115.574 63.351C115.215 62.9614 114.714 62.7666 114.073 62.7666C113.431 62.7666 112.924 62.9614 112.552 63.351C112.193 63.7275 112.013 64.2664 112.013 64.9677V70.8696H108.74V64.9677C108.74 64.2664 108.554 63.7275 108.182 63.351C107.823 62.9614 107.322 62.7666 106.681 62.7666C106.039 62.7666 105.532 62.9614 105.16 63.351C104.801 63.7275 104.621 64.2664 104.621 64.9677V70.8696H101.329V60.0007H104.621V61.3642C104.955 60.9097 105.391 60.5526 105.93 60.2929C106.469 60.0202 107.079 59.8838 107.759 59.8838C108.567 59.8838 109.286 60.0591 109.915 60.4097C110.556 60.7604 111.057 61.2603 111.416 61.9096C111.788 61.3122 112.295 60.8253 112.937 60.4487C113.579 60.0721 114.278 59.8838 115.035 59.8838ZM123.363 58.871C122.785 58.871 122.31 58.7022 121.938 58.3645C121.579 58.0139 121.399 57.5854 121.399 57.079C121.399 56.5595 121.579 56.131 121.938 55.7934C122.31 55.4428 122.785 55.2675 123.363 55.2675C123.927 55.2675 124.389 55.4428 124.749 55.7934C125.121 56.131 125.307 56.5595 125.307 57.079C125.307 57.5854 125.121 58.0139 124.749 58.3645C124.389 58.7022 123.927 58.871 123.363 58.871ZM124.999 60.0007V70.8696H121.707V60.0007H124.999Z" fill="black"/>
</g>
<defs>
<clipPath id="clip0_50_165">
<rect width="126.261" height="132" fill="white"/>
</clipPath>
</defs>
</svg>
