<svg width="132" height="32" viewBox="0 0 132 32" fill="none" xmlns="http://www.w3.org/2000/svg">
<g clip-path="url(#clip0_74_65)">
<path d="M2.75 16.4469C2.75 16.4469 24.0625 34.5338 34.375 16.4469C44.6875 -1.64001 56.375 6.01209 66 16.4469C75.625 26.8818 85.9375 -7.90081 97.625 16.4469C109.313 40.7947 129.25 16.4469 129.25 16.4469" stroke="#EFA412" stroke-width="8"/>
<path d="M7.23523 18.2984H11.5472V20.8696H3.94348V7.19583H7.23523V18.2984ZM12.4628 15.4157C12.4628 14.2989 12.6681 13.3185 13.0788 12.4744C13.5023 11.6304 14.0734 10.9811 14.7921 10.5266C15.5107 10.0721 16.3128 9.84487 17.1983 9.84487C17.9554 9.84487 18.6164 10.0007 19.1811 10.3123C19.7586 10.624 20.2013 11.033 20.5093 11.5395V10.0007H23.8011V20.8696H20.5093V19.3308C20.1884 19.8372 19.7393 20.2463 19.1618 20.5579C18.5971 20.8696 17.9362 21.0254 17.1791 21.0254C16.3064 21.0254 15.5107 20.7982 14.7921 20.3437C14.0734 19.8762 13.5023 19.2205 13.0788 18.3763C12.6681 17.5193 12.4628 16.5325 12.4628 15.4157ZM20.5093 15.4351C20.5093 14.6041 20.2783 13.9482 19.8163 13.4678C19.3671 12.9874 18.8153 12.7471 18.1608 12.7471C17.5063 12.7471 16.9481 12.9874 16.4861 13.4678C16.0369 13.9353 15.8123 14.5846 15.8123 15.4157C15.8123 16.2467 16.0369 16.9089 16.4861 17.4024C16.9481 17.8829 17.5063 18.1231 18.1608 18.1231C18.8153 18.1231 19.3671 17.8829 19.8163 17.4024C20.2783 16.922 20.5093 16.2662 20.5093 15.4351ZM36.7892 10.0007V20.8696H33.4975V19.3892C33.1639 19.8696 32.7082 20.2592 32.1307 20.5579C31.5661 20.8435 30.9372 20.9864 30.2442 20.9864C29.4229 20.9864 28.6979 20.8046 28.069 20.441C27.4402 20.0644 26.9525 19.5256 26.606 18.8243C26.2595 18.1231 26.0862 17.2985 26.0862 16.3506V10.0007H29.3587V15.9026C29.3587 16.6298 29.5449 17.1947 29.917 17.5972C30.2892 17.9997 30.7897 18.201 31.4185 18.201C32.0602 18.201 32.5671 17.9997 32.9392 17.5972C33.3114 17.1947 33.4975 16.6298 33.4975 15.9026V10.0007H36.7892ZM42.4454 11.8122C42.8304 11.2148 43.3117 10.7474 43.8892 10.4097C44.4667 10.0591 45.1084 9.88383 45.8142 9.88383V13.4094H44.9094C44.0881 13.4094 43.4721 13.5912 43.0614 13.9548C42.6508 14.3054 42.4454 14.9287 42.4454 15.8247V20.8696H39.1537V10.0007H42.4454V11.8122ZM46.7331 15.4157C46.7331 14.2989 46.9384 13.3185 47.3491 12.4744C47.7726 11.6304 48.3436 10.9811 49.0623 10.5266C49.781 10.0721 50.5831 9.84487 51.4686 9.84487C52.2258 9.84487 52.8866 10.0007 53.4513 10.3123C54.0288 10.624 54.4716 11.033 54.7796 11.5395V10.0007H58.0713V20.8696H54.7796V19.3308C54.4588 19.8372 54.0096 20.2463 53.4321 20.5579C52.8674 20.8696 52.2065 21.0254 51.4493 21.0254C50.5766 21.0254 49.781 20.7982 49.0623 20.3437C48.3436 19.8762 47.7726 19.2205 47.3491 18.3763C46.9384 17.5193 46.7331 16.5325 46.7331 15.4157ZM54.7796 15.4351C54.7796 14.6041 54.5486 13.9482 54.0866 13.4678C53.6374 12.9874 53.0856 12.7471 52.4311 12.7471C51.7766 12.7471 51.2183 12.9874 50.7563 13.4678C50.3071 13.9353 50.0826 14.5846 50.0826 15.4157C50.0826 16.2467 50.3071 16.9089 50.7563 17.4024C51.2183 17.8829 51.7766 18.1231 52.4311 18.1231C53.0856 18.1231 53.6374 17.8829 54.0866 17.4024C54.5486 16.922 54.7796 16.2662 54.7796 15.4351ZM76.6212 20.8696H73.3294L67.8239 12.4355V20.8696H64.5322V7.19583H67.8239L73.3294 15.6689V7.19583H76.6212V20.8696ZM78.3527 15.4157C78.3527 14.2989 78.558 13.3185 78.9687 12.4744C79.3922 11.6304 79.9632 10.9811 80.682 10.5266C81.4007 10.0721 82.2027 9.84487 83.0882 9.84487C83.8454 9.84487 84.5062 10.0007 85.071 10.3123C85.6485 10.624 86.0912 11.033 86.3992 11.5395V10.0007H89.691V20.8696H86.3992V19.3308C86.0784 19.8372 85.6292 20.2463 85.0517 20.5579C84.487 20.8696 83.8262 21.0254 83.069 21.0254C82.1963 21.0254 81.4007 20.7982 80.682 20.3437C79.9632 19.8762 79.3922 19.2205 78.9687 18.3763C78.558 17.5193 78.3527 16.5325 78.3527 15.4157ZM86.3992 15.4351C86.3992 14.6041 86.1682 13.9482 85.7062 13.4678C85.257 12.9874 84.7052 12.7471 84.0507 12.7471C83.3962 12.7471 82.838 12.9874 82.376 13.4678C81.9268 13.9353 81.7022 14.5846 81.7022 15.4157C81.7022 16.2467 81.9268 16.9089 82.376 17.4024C82.838 17.8829 83.3962 18.1231 84.0507 18.1231C84.7052 18.1231 85.257 17.8829 85.7062 17.4024C86.1682 16.922 86.3992 16.2662 86.3992 15.4351ZM96.962 21.0254C95.9095 21.0254 94.96 20.7982 94.113 20.3437C93.2788 19.8891 92.6178 19.2399 92.1302 18.3958C91.6553 17.5517 91.418 16.5649 91.418 15.4351C91.418 14.3183 91.6618 13.338 92.1493 12.4939C92.637 11.6369 93.3045 10.9811 94.1515 10.5266C94.9985 10.0721 95.948 9.84487 97.0005 9.84487C98.0527 9.84487 99.0025 10.0721 99.8495 10.5266C100.696 10.9811 101.364 11.6369 101.851 12.4939C102.339 13.338 102.583 14.3183 102.583 15.4351C102.583 16.5519 102.333 17.5388 101.832 18.3958C101.345 19.2399 100.671 19.8891 99.811 20.3437C98.964 20.7982 98.0142 21.0254 96.962 21.0254ZM96.962 18.1426C97.5907 18.1426 98.1233 17.9089 98.5597 17.4414C99.0088 16.9739 99.2335 16.3051 99.2335 15.4351C99.2335 14.5651 99.0153 13.8963 98.579 13.4289C98.1555 12.9614 97.6292 12.7277 97.0005 12.7277C96.3587 12.7277 95.8262 12.9614 95.4027 13.4289C94.9792 13.8834 94.7675 14.5521 94.7675 15.4351C94.7675 16.3051 94.9728 16.9739 95.3835 17.4414C95.807 17.9089 96.333 18.1426 96.962 18.1426ZM118.035 9.88383C119.37 9.88383 120.429 10.2929 121.211 11.111C122.007 11.929 122.405 13.0653 122.405 14.5197V20.8696H119.132V14.9677C119.132 14.2664 118.946 13.7275 118.574 13.351C118.215 12.9614 117.714 12.7666 117.073 12.7666C116.431 12.7666 115.924 12.9614 115.552 13.351C115.193 13.7275 115.013 14.2664 115.013 14.9677V20.8696H111.74V14.9677C111.74 14.2664 111.554 13.7275 111.182 13.351C110.823 12.9614 110.322 12.7666 109.681 12.7666C109.039 12.7666 108.532 12.9614 108.16 13.351C107.801 13.7275 107.621 14.2664 107.621 14.9677V20.8696H104.329V10.0007H107.621V11.3642C107.955 10.9097 108.391 10.5526 108.93 10.2929C109.469 10.0202 110.079 9.88383 110.759 9.88383C111.567 9.88383 112.286 10.0591 112.915 10.4097C113.556 10.7603 114.057 11.2603 114.416 11.9096C114.788 11.3122 115.295 10.8253 115.937 10.4487C116.579 10.0721 117.278 9.88383 118.035 9.88383ZM126.363 8.87096C125.785 8.87096 125.31 8.70215 124.938 8.36452C124.579 8.01391 124.399 7.58539 124.399 7.07896C124.399 6.55954 124.579 6.13102 124.938 5.79339C125.31 5.44278 125.785 5.26748 126.363 5.26748C126.927 5.26748 127.389 5.44278 127.749 5.79339C128.121 6.13102 128.307 6.55954 128.307 7.07896C128.307 7.58539 128.121 8.01391 127.749 8.36452C127.389 8.70215 126.927 8.87096 126.363 8.87096ZM127.999 10.0007V20.8696H124.707V10.0007H127.999Z" fill="black"/>
</g>
<defs>
<clipPath id="clip0_74_65">
<rect width="132" height="32" fill="white"/>
</clipPath>
</defs>
</svg>
