<svg width="100" height="100" viewBox="0 0 100 100" fill="none" xmlns="http://www.w3.org/2000/svg">
<path d="M90.625 50C90.625 39.2256 86.3449 28.8925 78.7262 21.2738C71.1075 13.6551 60.7744 9.375 50 9.375C39.2256 9.375 28.8925 13.6551 21.2738 21.2738C13.6551 28.8925 9.375 39.2256 9.375 50C9.375 60.7744 13.6551 71.1075 21.2738 78.7262C28.8925 86.3449 39.2256 90.625 50 90.625C60.7744 90.625 71.1075 86.3449 78.7262 78.7262C86.3449 71.1075 90.625 60.7744 90.625 50ZM0 50C0 36.7392 5.26784 24.0215 14.6447 14.6447C24.0215 5.26784 36.7392 0 50 0C63.2608 0 75.9785 5.26784 85.3553 14.6447C94.7322 24.0215 100 36.7392 100 50C100 63.2608 94.7322 75.9785 85.3553 85.3553C75.9785 94.7322 63.2608 100 50 100C36.7392 100 24.0215 94.7322 14.6447 85.3553C5.26784 75.9785 0 63.2608 0 50ZM34.6875 62.1289C37.6562 65.332 42.7344 68.75 50 68.75C57.2656 68.75 62.3438 65.332 65.3125 62.1289C67.0703 60.2344 70.0391 60.0977 71.9336 61.8555C73.8281 63.6133 73.9648 66.582 72.207 68.4766C67.9102 73.125 60.4883 78.125 50.0195 78.125C39.5508 78.125 32.1094 73.1445 27.832 68.4766C26.0742 66.582 26.1914 63.6133 28.1055 61.8555C30.0195 60.0977 32.9688 60.2148 34.7266 62.1289H34.6875ZM28.2031 40.625C28.2031 38.9674 28.8616 37.3777 30.0337 36.2056C31.2058 35.0335 32.7955 34.375 34.4531 34.375C36.1107 34.375 37.7004 35.0335 38.8725 36.2056C40.0446 37.3777 40.7031 38.9674 40.7031 40.625C40.7031 42.2826 40.0446 43.8723 38.8725 45.0444C37.7004 46.2165 36.1107 46.875 34.4531 46.875C32.7955 46.875 31.2058 46.2165 30.0337 45.0444C28.8616 43.8723 28.2031 42.2826 28.2031 40.625ZM65.7031 34.375C67.3607 34.375 68.9504 35.0335 70.1225 36.2056C71.2946 37.3777 71.9531 38.9674 71.9531 40.625C71.9531 42.2826 71.2946 43.8723 70.1225 45.0444C68.9504 46.2165 67.3607 46.875 65.7031 46.875C64.0455 46.875 62.4558 46.2165 61.2837 45.0444C60.1116 43.8723 59.4531 42.2826 59.4531 40.625C59.4531 38.9674 60.1116 37.3777 61.2837 36.2056C62.4558 35.0335 64.0455 34.375 65.7031 34.375Z" fill="#EFA412"/>
</svg>
